<svg width="24" height="25" viewBox="0 0 24 25" fill="none" xmlns="http://www.w3.org/2000/svg">
<g clip-path="url(#clip0_5_73)">
<path d="M13.4527 0C7.78652 0 3.19268 4.7276 3.19268 10.5597C3.19268 12.6319 3.7724 14.565 4.77434 16.1959C4.76698 16.1992 4.75976 16.2022 4.75238 16.2056L0.288177 20.7998L4.08038 24.7031L8.70536 19.9418C8.70398 19.9351 8.70212 19.9284 8.70068 19.9217C10.1214 20.6873 11.738 21.1203 13.4527 21.1203C19.1189 21.1203 23.7119 16.3919 23.7119 10.5598C23.7118 4.7276 19.1188 0 13.4527 0ZM13.4527 4.69106C16.6015 4.69106 19.1535 7.31863 19.1535 10.5597C19.1535 13.8008 16.6015 16.4284 13.4527 16.4284C10.3038 16.4284 7.75102 13.8008 7.75102 10.5597C7.75102 7.31863 10.3038 4.69106 13.4527 4.69106Z" fill="#B7B7B7" fill-opacity="0.7"/>
</g>
<defs>
<clipPath id="clip0_5_73">
<rect width="24" height="24.7031" fill="white"/>
</clipPath>
</defs>
</svg>
